<?xml version="1.0" encoding="utf-8" standalone="no"?>
<!DOCTYPE svg PUBLIC "-//W3C//DTD SVG 1.1//EN"
  "http://www.w3.org/Graphics/SVG/1.1/DTD/svg11.dtd">
<svg xmlns:xlink="http://www.w3.org/1999/xlink" width="576pt" height="345.6pt" viewBox="0 0 576 345.6" xmlns="http://www.w3.org/2000/svg" version="1.1">
 <metadata>
  <rdf:RDF xmlns:dc="http://purl.org/dc/elements/1.1/" xmlns:cc="http://creativecommons.org/ns#" xmlns:rdf="http://www.w3.org/1999/02/22-rdf-syntax-ns#">
   <cc:Work>
    <dc:type rdf:resource="http://purl.org/dc/dcmitype/StillImage"/>
    <dc:format>image/svg+xml</dc:format>
    <dc:creator>
     <cc:Agent>
      <dc:title>Matplotlib v3.9.0, https://matplotlib.org/</dc:title>
     </cc:Agent>
    </dc:creator>
   </cc:Work>
  </rdf:RDF>
 </metadata>
 <defs>
  <style type="text/css">*{stroke-linejoin: round; stroke-linecap: butt}</style>
 </defs>
 <g id="figure_1">
  <g id="patch_1">
   <path d="M 0 345.6
L 576 345.6
L 576 0
L 0 0
z
" style="fill: #ffffff"/>
  </g>
  <g id="axes_1">
   <g id="patch_2">
    <path d="M 54.11 300.328
L 565.2 300.328
L 565.2 41.856
L 54.11 41.856
z
" style="fill: #ffffff"/>
   </g>
   <g id="matplotlib.axis_1">
    <g id="xtick_1">
     <g id="line2d_1">
      <path d="M 243.153146 300.328
L 243.153146 41.856
" clip-path="url(#p1f188459c7)" style="fill: none; stroke: #b0b0b0; stroke-opacity: 0.2; stroke-width: 0.8; stroke-linecap: square"/>
     </g>
     <g id="line2d_2">
      <defs>
       <path id="m80ef9a66b1" d="M 0 0
L 0 3.5
" style="stroke: #000000; stroke-width: 0.8"/>
      </defs>
      <g>
       <use xlink:href="#m80ef9a66b1" x="243.153146" y="300.328" style="stroke: #000000; stroke-width: 0.8"/>
      </g>
     </g>
     <g id="text_1">
      <!-- $\mathdefault{10^{0}}$ -->
      <g transform="translate(234.353146 314.926437)">
       <text>
        <tspan style="font: 10px 'DejaVu Sans'" x="0 6.362305" y="-0.9765625">10</tspan>
        <tspan style="font: 7px 'DejaVu Sans'" x="12.820312" y="-4.8046875">0</tspan>
       </text>
      </g>
     </g>
    </g>
    <g id="xtick_2">
     <g id="line2d_3">
      <defs>
       <path id="m146ccbc91f" d="M 0 0
L 0 2
" style="stroke: #000000; stroke-width: 0.6"/>
      </defs>
      <g>
       <use xlink:href="#m146ccbc91f" x="83.500237" y="300.328" style="stroke: #000000; stroke-width: 0.6"/>
      </g>
     </g>
    </g>
    <g id="xtick_3">
     <g id="line2d_4">
      <g>
       <use xlink:href="#m146ccbc91f" x="122.380383" y="300.328" style="stroke: #000000; stroke-width: 0.6"/>
      </g>
     </g>
    </g>
    <g id="xtick_4">
     <g id="line2d_5">
      <g>
       <use xlink:href="#m146ccbc91f" x="154.147775" y="300.328" style="stroke: #000000; stroke-width: 0.6"/>
      </g>
     </g>
    </g>
    <g id="xtick_5">
     <g id="line2d_6">
      <g>
       <use xlink:href="#m146ccbc91f" x="181.006722" y="300.328" style="stroke: #000000; stroke-width: 0.6"/>
      </g>
     </g>
    </g>
    <g id="xtick_6">
     <g id="line2d_7">
      <g>
       <use xlink:href="#m146ccbc91f" x="204.273" y="300.328" style="stroke: #000000; stroke-width: 0.6"/>
      </g>
     </g>
    </g>
    <g id="xtick_7">
     <g id="line2d_8">
      <g>
       <use xlink:href="#m146ccbc91f" x="224.795312" y="300.328" style="stroke: #000000; stroke-width: 0.6"/>
      </g>
     </g>
    </g>
    <g id="xtick_8">
     <g id="line2d_9">
      <g>
       <use xlink:href="#m146ccbc91f" x="363.925909" y="300.328" style="stroke: #000000; stroke-width: 0.6"/>
      </g>
     </g>
    </g>
    <g id="xtick_9">
     <g id="line2d_10">
      <g>
       <use xlink:href="#m146ccbc91f" x="434.573446" y="300.328" style="stroke: #000000; stroke-width: 0.6"/>
      </g>
     </g>
    </g>
    <g id="xtick_10">
     <g id="line2d_11">
      <g>
       <use xlink:href="#m146ccbc91f" x="484.698672" y="300.328" style="stroke: #000000; stroke-width: 0.6"/>
      </g>
     </g>
    </g>
    <g id="xtick_11">
     <g id="line2d_12">
      <g>
       <use xlink:href="#m146ccbc91f" x="523.578817" y="300.328" style="stroke: #000000; stroke-width: 0.6"/>
      </g>
     </g>
    </g>
    <g id="xtick_12">
     <g id="line2d_13">
      <g>
       <use xlink:href="#m146ccbc91f" x="555.346209" y="300.328" style="stroke: #000000; stroke-width: 0.6"/>
      </g>
     </g>
    </g>
    <g id="text_2">
     <text style="font: 10px 'DejaVu Sans', 'Bitstream Vera Sans', 'Computer Modern Sans Serif', 'Lucida Grande', 'Verdana', 'Geneva', 'Lucid', 'Arial', 'Helvetica', 'Avant Garde', sans-serif; text-anchor: middle" x="309.655" y="328.604562" transform="rotate(-0 309.655 328.604562)">Median query latency (ms, warm cache)</text>
    </g>
   </g>
   <g id="matplotlib.axis_2">
    <g id="ytick_1">
     <g id="line2d_14">
      <path d="M 54.11 272.634571
L 565.2 272.634571
" clip-path="url(#p1f188459c7)" style="fill: none; stroke: #b0b0b0; stroke-opacity: 0.2; stroke-width: 0.8; stroke-linecap: square"/>
     </g>
     <g id="line2d_15">
      <defs>
       <path id="m36182414cb" d="M 0 0
L -3.5 0
" style="stroke: #000000; stroke-width: 0.8"/>
      </defs>
      <g>
       <use xlink:href="#m36182414cb" x="54.11" y="272.634571" style="stroke: #000000; stroke-width: 0.8"/>
      </g>
     </g>
     <g id="text_3">
      <text style="font: 10px 'DejaVu Sans', 'Bitstream Vera Sans', 'Computer Modern Sans Serif', 'Lucida Grande', 'Verdana', 'Geneva', 'Lucid', 'Arial', 'Helvetica', 'Avant Garde', sans-serif; text-anchor: end" x="47.11" y="276.43379" transform="rotate(-0 47.11 276.43379)">0.94</text>
     </g>
    </g>
    <g id="ytick_2">
     <g id="line2d_16">
      <path d="M 54.11 237.130176
L 565.2 237.130176
" clip-path="url(#p1f188459c7)" style="fill: none; stroke: #b0b0b0; stroke-opacity: 0.2; stroke-width: 0.8; stroke-linecap: square"/>
     </g>
     <g id="line2d_17">
      <g>
       <use xlink:href="#m36182414cb" x="54.11" y="237.130176" style="stroke: #000000; stroke-width: 0.8"/>
      </g>
     </g>
     <g id="text_4">
      <text style="font: 10px 'DejaVu Sans', 'Bitstream Vera Sans', 'Computer Modern Sans Serif', 'Lucida Grande', 'Verdana', 'Geneva', 'Lucid', 'Arial', 'Helvetica', 'Avant Garde', sans-serif; text-anchor: end" x="47.11" y="240.929395" transform="rotate(-0 47.11 240.929395)">0.95</text>
     </g>
    </g>
    <g id="ytick_3">
     <g id="line2d_18">
      <path d="M 54.11 201.62578
L 565.2 201.62578
" clip-path="url(#p1f188459c7)" style="fill: none; stroke: #b0b0b0; stroke-opacity: 0.2; stroke-width: 0.8; stroke-linecap: square"/>
     </g>
     <g id="line2d_19">
      <g>
       <use xlink:href="#m36182414cb" x="54.11" y="201.62578" style="stroke: #000000; stroke-width: 0.8"/>
      </g>
     </g>
     <g id="text_5">
      <text style="font: 10px 'DejaVu Sans', 'Bitstream Vera Sans', 'Computer Modern Sans Serif', 'Lucida Grande', 'Verdana', 'Geneva', 'Lucid', 'Arial', 'Helvetica', 'Avant Garde', sans-serif; text-anchor: end" x="47.11" y="205.424999" transform="rotate(-0 47.11 205.424999)">0.96</text>
     </g>
    </g>
    <g id="ytick_4">
     <g id="line2d_20">
      <path d="M 54.11 166.121385
L 565.2 166.121385
" clip-path="url(#p1f188459c7)" style="fill: none; stroke: #b0b0b0; stroke-opacity: 0.2; stroke-width: 0.8; stroke-linecap: square"/>
     </g>
     <g id="line2d_21">
      <g>
       <use xlink:href="#m36182414cb" x="54.11" y="166.121385" style="stroke: #000000; stroke-width: 0.8"/>
      </g>
     </g>
     <g id="text_6">
      <text style="font: 10px 'DejaVu Sans', 'Bitstream Vera Sans', 'Computer Modern Sans Serif', 'Lucida Grande', 'Verdana', 'Geneva', 'Lucid', 'Arial', 'Helvetica', 'Avant Garde', sans-serif; text-anchor: end" x="47.11" y="169.920603" transform="rotate(-0 47.11 169.920603)">0.97</text>
     </g>
    </g>
    <g id="ytick_5">
     <g id="line2d_22">
      <path d="M 54.11 130.616989
L 565.2 130.616989
" clip-path="url(#p1f188459c7)" style="fill: none; stroke: #b0b0b0; stroke-opacity: 0.2; stroke-width: 0.8; stroke-linecap: square"/>
     </g>
     <g id="line2d_23">
      <g>
       <use xlink:href="#m36182414cb" x="54.11" y="130.616989" style="stroke: #000000; stroke-width: 0.8"/>
      </g>
     </g>
     <g id="text_7">
      <text style="font: 10px 'DejaVu Sans', 'Bitstream Vera Sans', 'Computer Modern Sans Serif', 'Lucida Grande', 'Verdana', 'Geneva', 'Lucid', 'Arial', 'Helvetica', 'Avant Garde', sans-serif; text-anchor: end" x="47.11" y="134.416208" transform="rotate(-0 47.11 134.416208)">0.98</text>
     </g>
    </g>
    <g id="ytick_6">
     <g id="line2d_24">
      <path d="M 54.11 95.112593
L 565.2 95.112593
" clip-path="url(#p1f188459c7)" style="fill: none; stroke: #b0b0b0; stroke-opacity: 0.2; stroke-width: 0.8; stroke-linecap: square"/>
     </g>
     <g id="line2d_25">
      <g>
       <use xlink:href="#m36182414cb" x="54.11" y="95.112593" style="stroke: #000000; stroke-width: 0.8"/>
      </g>
     </g>
     <g id="text_8">
      <text style="font: 10px 'DejaVu Sans', 'Bitstream Vera Sans', 'Computer Modern Sans Serif', 'Lucida Grande', 'Verdana', 'Geneva', 'Lucid', 'Arial', 'Helvetica', 'Avant Garde', sans-serif; text-anchor: end" x="47.11" y="98.911812" transform="rotate(-0 47.11 98.911812)">0.99</text>
     </g>
    </g>
    <g id="ytick_7">
     <g id="line2d_26">
      <path d="M 54.11 59.608198
L 565.2 59.608198
" clip-path="url(#p1f188459c7)" style="fill: none; stroke: #b0b0b0; stroke-opacity: 0.2; stroke-width: 0.8; stroke-linecap: square"/>
     </g>
     <g id="line2d_27">
      <g>
       <use xlink:href="#m36182414cb" x="54.11" y="59.608198" style="stroke: #000000; stroke-width: 0.8"/>
      </g>
     </g>
     <g id="text_9">
      <text style="font: 10px 'DejaVu Sans', 'Bitstream Vera Sans', 'Computer Modern Sans Serif', 'Lucida Grande', 'Verdana', 'Geneva', 'Lucid', 'Arial', 'Helvetica', 'Avant Garde', sans-serif; text-anchor: end" x="47.11" y="63.407417" transform="rotate(-0 47.11 63.407417)">1.00</text>
     </g>
    </g>
    <g id="text_10">
     <text style="font: 10px 'DejaVu Sans', 'Bitstream Vera Sans', 'Computer Modern Sans Serif', 'Lucida Grande', 'Verdana', 'Geneva', 'Lucid', 'Arial', 'Helvetica', 'Avant Garde', sans-serif; text-anchor: middle" x="18.764688" y="171.092" transform="rotate(-90 18.764688 171.092)">Recall@10</text>
    </g>
   </g>
   <g id="line2d_28">
    <path d="M 77.341364 211.567011
L 148.512037 117.835407
L 240.389 79.845703
L 341.251333 66.354033
L 451.724509 61.738462
" clip-path="url(#p1f188459c7)" style="fill: none; stroke: #1f77b4; stroke-width: 1.5; stroke-linecap: square"/>
    <defs>
     <path id="m10fbde1d09" d="M 0 2
C 0.530406 2 1.03916 1.789267 1.414214 1.414214
C 1.789267 1.03916 2 0.530406 2 0
C 2 -0.530406 1.789267 -1.03916 1.414214 -1.414214
C 1.03916 -1.789267 0.530406 -2 0 -2
C -0.530406 -2 -1.03916 -1.789267 -1.414214 -1.414214
C -1.789267 -1.03916 -2 -0.530406 -2 0
C -2 0.530406 -1.789267 1.03916 -1.414214 1.414214
C -1.03916 1.789267 -0.530406 2 0 2
z
" style="stroke: #1f77b4"/>
    </defs>
    <g clip-path="url(#p1f188459c7)">
     <use xlink:href="#m10fbde1d09" x="77.341364" y="211.567011" style="fill: #1f77b4; stroke: #1f77b4"/>
     <use xlink:href="#m10fbde1d09" x="148.512037" y="117.835407" style="fill: #1f77b4; stroke: #1f77b4"/>
     <use xlink:href="#m10fbde1d09" x="240.389" y="79.845703" style="fill: #1f77b4; stroke: #1f77b4"/>
     <use xlink:href="#m10fbde1d09" x="341.251333" y="66.354033" style="fill: #1f77b4; stroke: #1f77b4"/>
     <use xlink:href="#m10fbde1d09" x="451.724509" y="61.738462" style="fill: #1f77b4; stroke: #1f77b4"/>
    </g>
   </g>
   <g id="line2d_29">
    <path d="M 97.144577 196.655165
L 168.641464 114.995055
L 259.502635 75.230132
L 364.285209 65.288901
L 474.474604 61.028374
" clip-path="url(#p1f188459c7)" style="fill: none; stroke: #ff7f0e; stroke-width: 1.5; stroke-linecap: square"/>
    <defs>
     <path id="m450dfe3fd1" d="M 0 2
C 0.530406 2 1.03916 1.789267 1.414214 1.414214
C 1.789267 1.03916 2 0.530406 2 0
C 2 -0.530406 1.789267 -1.03916 1.414214 -1.414214
C 1.03916 -1.789267 0.530406 -2 0 -2
C -0.530406 -2 -1.03916 -1.789267 -1.414214 -1.414214
C -1.789267 -1.03916 -2 -0.530406 -2 0
C -2 0.530406 -1.789267 1.03916 -1.414214 1.414214
C -1.03916 1.789267 -0.530406 2 0 2
z
" style="stroke: #ff7f0e"/>
    </defs>
    <g clip-path="url(#p1f188459c7)">
     <use xlink:href="#m450dfe3fd1" x="97.144577" y="196.655165" style="fill: #ff7f0e; stroke: #ff7f0e"/>
     <use xlink:href="#m450dfe3fd1" x="168.641464" y="114.995055" style="fill: #ff7f0e; stroke: #ff7f0e"/>
     <use xlink:href="#m450dfe3fd1" x="259.502635" y="75.230132" style="fill: #ff7f0e; stroke: #ff7f0e"/>
     <use xlink:href="#m450dfe3fd1" x="364.285209" y="65.288901" style="fill: #ff7f0e; stroke: #ff7f0e"/>
     <use xlink:href="#m450dfe3fd1" x="474.474604" y="61.028374" style="fill: #ff7f0e; stroke: #ff7f0e"/>
    </g>
   </g>
   <g id="line2d_30">
    <path d="M 159.300164 138.783
L 219.0285 84.106231
L 323.536385 67.064121
L 420.6854 62.448549
L 489.900872 59.963242
" clip-path="url(#p1f188459c7)" style="fill: none; stroke: #2ca02c; stroke-width: 1.5; stroke-linecap: square"/>
    <defs>
     <path id="mb22937f53b" d="M 0 2
C 0.530406 2 1.03916 1.789267 1.414214 1.414214
C 1.789267 1.03916 2 0.530406 2 0
C 2 -0.530406 1.789267 -1.03916 1.414214 -1.414214
C 1.03916 -1.789267 0.530406 -2 0 -2
C -0.530406 -2 -1.03916 -1.789267 -1.414214 -1.414214
C -1.789267 -1.03916 -2 -0.530406 -2 0
C -2 0.530406 -1.789267 1.03916 -1.414214 1.414214
C -1.03916 1.789267 -0.530406 2 0 2
z
" style="stroke: #2ca02c"/>
    </defs>
    <g clip-path="url(#p1f188459c7)">
     <use xlink:href="#mb22937f53b" x="159.300164" y="138.783" style="fill: #2ca02c; stroke: #2ca02c"/>
     <use xlink:href="#mb22937f53b" x="219.0285" y="84.106231" style="fill: #2ca02c; stroke: #2ca02c"/>
     <use xlink:href="#mb22937f53b" x="323.536385" y="67.064121" style="fill: #2ca02c; stroke: #2ca02c"/>
     <use xlink:href="#mb22937f53b" x="420.6854" y="62.448549" style="fill: #2ca02c; stroke: #2ca02c"/>
     <use xlink:href="#mb22937f53b" x="489.900872" y="59.963242" style="fill: #2ca02c; stroke: #2ca02c"/>
    </g>
   </g>
   <g id="line2d_31">
    <path d="M 168.060901 126.711505
L 228.552422 80.910835
L 330.390045 64.933857
L 448.445037 61.028374
L 541.968636 59.963242
" clip-path="url(#p1f188459c7)" style="fill: none; stroke: #d62728; stroke-width: 1.5; stroke-linecap: square"/>
    <defs>
     <path id="m987d074378" d="M 0 2
C 0.530406 2 1.03916 1.789267 1.414214 1.414214
C 1.789267 1.03916 2 0.530406 2 0
C 2 -0.530406 1.789267 -1.03916 1.414214 -1.414214
C 1.03916 -1.789267 0.530406 -2 0 -2
C -0.530406 -2 -1.03916 -1.789267 -1.414214 -1.414214
C -1.789267 -1.03916 -2 -0.530406 -2 0
C -2 0.530406 -1.789267 1.03916 -1.414214 1.414214
C -1.03916 1.789267 -0.530406 2 0 2
z
" style="stroke: #d62728"/>
    </defs>
    <g clip-path="url(#p1f188459c7)">
     <use xlink:href="#m987d074378" x="168.060901" y="126.711505" style="fill: #d62728; stroke: #d62728"/>
     <use xlink:href="#m987d074378" x="228.552422" y="80.910835" style="fill: #d62728; stroke: #d62728"/>
     <use xlink:href="#m987d074378" x="330.390045" y="64.933857" style="fill: #d62728; stroke: #d62728"/>
     <use xlink:href="#m987d074378" x="448.445037" y="61.028374" style="fill: #d62728; stroke: #d62728"/>
     <use xlink:href="#m987d074378" x="541.968636" y="59.963242" style="fill: #d62728; stroke: #d62728"/>
    </g>
   </g>
   <g id="line2d_32">
    <path d="M 54.11 237.130176
L 565.2 237.130176
" clip-path="url(#p1f188459c7)" style="fill: none; stroke-dasharray: 3.7,1.6; stroke-dashoffset: 0; stroke: #666666"/>
   </g>
   <g id="patch_3">
    <path d="M 54.11 300.328
L 54.11 41.856
" style="fill: none; stroke: #000000; stroke-width: 0.8; stroke-linejoin: miter; stroke-linecap: square"/>
   </g>
   <g id="patch_4">
    <path d="M 565.2 300.328
L 565.2 41.856
" style="fill: none; stroke: #000000; stroke-width: 0.8; stroke-linejoin: miter; stroke-linecap: square"/>
   </g>
   <g id="patch_5">
    <path d="M 54.11 300.328
L 565.2 300.328
" style="fill: none; stroke: #000000; stroke-width: 0.8; stroke-linejoin: miter; stroke-linecap: square"/>
   </g>
   <g id="patch_6">
    <path d="M 54.11 41.856
L 565.2 41.856
" style="fill: none; stroke: #000000; stroke-width: 0.8; stroke-linejoin: miter; stroke-linecap: square"/>
   </g>
   <g id="text_11">
    <text style="font: 12px 'DejaVu Sans', 'Bitstream Vera Sans', 'Computer Modern Sans Serif', 'Lucida Grande', 'Verdana', 'Geneva', 'Lucid', 'Arial', 'Helvetica', 'Avant Garde', sans-serif" transform="translate(54.11 22.418625)">HNSW: 125,000 segments, 1,000 held-out queries</text>
    <text style="font: 12px 'DejaVu Sans', 'Bitstream Vera Sans', 'Computer Modern Sans Serif', 'Lucida Grande', 'Verdana', 'Geneva', 'Lucid', 'Arial', 'Helvetica', 'Avant Garde', sans-serif" transform="translate(54.11 35.856)">Python + NumPy, one CPU thread</text>
   </g>
   <g id="legend_1">
    <g id="patch_7">
     <path d="M 424.48 296.328
L 559.6 296.328
Q 561.2 296.328 561.2 294.728
L 561.2 236.8155
Q 561.2 235.2155 559.6 235.2155
L 424.48 235.2155
Q 422.88 235.2155 422.88 236.8155
L 422.88 294.728
Q 422.88 296.328 424.48 296.328
z
" style="fill: #ffffff; opacity: 0.8; stroke: #cccccc; stroke-linejoin: miter"/>
    </g>
    <g id="line2d_33">
     <path d="M 426.08 241.69425
L 434.08 241.69425
L 442.08 241.69425
" style="fill: none; stroke: #1f77b4; stroke-width: 1.5; stroke-linecap: square"/>
     <g>
      <use xlink:href="#m10fbde1d09" x="434.08" y="241.69425" style="fill: #1f77b4; stroke: #1f77b4"/>
     </g>
    </g>
    <g id="text_12">
     <text style="font: 8px 'DejaVu Sans', 'Bitstream Vera Sans', 'Computer Modern Sans Serif', 'Lucida Grande', 'Verdana', 'Geneva', 'Lucid', 'Arial', 'Helvetica', 'Avant Garde', sans-serif; text-anchor: start" x="448.48" y="244.49425" transform="rotate(-0 448.48 244.49425)">M=8, efConstruction=80</text>
    </g>
    <g id="line2d_34">
     <path d="M 426.08 253.43675
L 434.08 253.43675
L 442.08 253.43675
" style="fill: none; stroke: #ff7f0e; stroke-width: 1.5; stroke-linecap: square"/>
     <g>
      <use xlink:href="#m450dfe3fd1" x="434.08" y="253.43675" style="fill: #ff7f0e; stroke: #ff7f0e"/>
     </g>
    </g>
    <g id="text_13">
     <text style="font: 8px 'DejaVu Sans', 'Bitstream Vera Sans', 'Computer Modern Sans Serif', 'Lucida Grande', 'Verdana', 'Geneva', 'Lucid', 'Arial', 'Helvetica', 'Avant Garde', sans-serif; text-anchor: start" x="448.48" y="256.23675" transform="rotate(-0 448.48 256.23675)">M=8, efConstruction=160</text>
    </g>
    <g id="line2d_35">
     <path d="M 426.08 265.17925
L 434.08 265.17925
L 442.08 265.17925
" style="fill: none; stroke: #2ca02c; stroke-width: 1.5; stroke-linecap: square"/>
     <g>
      <use xlink:href="#mb22937f53b" x="434.08" y="265.17925" style="fill: #2ca02c; stroke: #2ca02c"/>
     </g>
    </g>
    <g id="text_14">
     <text style="font: 8px 'DejaVu Sans', 'Bitstream Vera Sans', 'Computer Modern Sans Serif', 'Lucida Grande', 'Verdana', 'Geneva', 'Lucid', 'Arial', 'Helvetica', 'Avant Garde', sans-serif; text-anchor: start" x="448.48" y="267.97925" transform="rotate(-0 448.48 267.97925)">M=16, efConstruction=80</text>
    </g>
    <g id="line2d_36">
     <path d="M 426.08 276.92175
L 434.08 276.92175
L 442.08 276.92175
" style="fill: none; stroke: #d62728; stroke-width: 1.5; stroke-linecap: square"/>
     <g>
      <use xlink:href="#m987d074378" x="434.08" y="276.92175" style="fill: #d62728; stroke: #d62728"/>
     </g>
    </g>
    <g id="text_15">
     <text style="font: 8px 'DejaVu Sans', 'Bitstream Vera Sans', 'Computer Modern Sans Serif', 'Lucida Grande', 'Verdana', 'Geneva', 'Lucid', 'Arial', 'Helvetica', 'Avant Garde', sans-serif; text-anchor: start" x="448.48" y="279.72175" transform="rotate(-0 448.48 279.72175)">M=16, efConstruction=160</text>
    </g>
    <g id="line2d_37">
     <path d="M 426.08 288.66425
L 434.08 288.66425
L 442.08 288.66425
" style="fill: none; stroke-dasharray: 3.7,1.6; stroke-dashoffset: 0; stroke: #666666"/>
    </g>
    <g id="text_16">
     <text style="font: 8px 'DejaVu Sans', 'Bitstream Vera Sans', 'Computer Modern Sans Serif', 'Lucida Grande', 'Verdana', 'Geneva', 'Lucid', 'Arial', 'Helvetica', 'Avant Garde', sans-serif; text-anchor: start" x="448.48" y="291.46425" transform="rotate(-0 448.48 291.46425)">Phase 2 target: 0.95</text>
    </g>
   </g>
  </g>
 </g>
 <defs>
  <clipPath id="p1f188459c7">
   <rect x="54.11" y="41.856" width="511.09" height="258.472"/>
  </clipPath>
 </defs>
</svg>
